<svg id="Ebene_1" data-name="Ebene 1" xmlns="http://www.w3.org/2000/svg" viewBox="0 0 283.46 130.41"><title>CEVEN_Logo_POS_RGB</title><polygon points="130.44 97.15 130.44 86.6 97.39 86.6 97.39 129.63 130.44 129.63 130.44 119.08 108.6 119.08 108.6 113.19 126.61 113.19 126.61 103.04 108.6 103.04 108.6 97.15 130.44 97.15"/><polygon points="230.34 97.15 230.34 86.6 197.29 86.6 197.29 129.63 230.34 129.63 230.34 119.08 208.49 119.08 208.49 113.19 226.5 113.19 226.5 103.04 208.49 103.04 208.49 97.15 230.34 97.15"/><polygon points="272.42 86.76 272.42 110.47 253.22 86.82 253.2 86.84 253.2 86.76 244.05 86.76 244.05 98.56 244.05 129.63 255.1 129.63 255.1 105.8 272.19 126.86 274.32 129.63 283.46 129.63 283.46 117.83 283.46 86.76 272.42 86.76"/><polygon points="174.61 86.65 163.95 115.61 153.29 86.65 141.1 86.65 158.37 129.63 169.36 129.63 186.63 86.65 174.61 86.65"/><path d="M150.23,193.32a11.69,11.69,0,1,1,10.3-17.24l9.26-5.3a22.3,22.3,0,1,0,.07,21.66l-9.31-5.32a11.7,11.7,0,0,1-10.33,6.21" transform="translate(-85.01 -73.56)"/><polygon points="0 49.04 21.25 36.78 42.51 49.04 21.25 61.3 0 49.04" style="fill:#007fa3"/><polygon points="21.25 61.3 42.51 49.04 63.76 61.3 42.51 73.56 21.25 61.3" style="fill:#006298"/><polygon points="42.51 49.04 63.76 36.78 85.01 49.04 63.76 61.3 42.51 49.04" style="fill:#151f6d"/><polygon points="0 24.52 21.25 12.26 42.51 24.52 21.25 36.78 0 24.52" style="fill:#fdf7be"/><polygon points="21.25 36.78 42.51 24.52 63.76 36.78 42.51 49.04 21.25 36.78" style="fill:#00bf6f"/><polygon points="42.51 24.52 63.76 12.26 85.01 24.52 63.76 36.78 42.51 24.52" style="fill:#80e0a7"/><polygon points="21.25 12.26 42.51 0 63.76 12.26 42.51 24.52 21.25 12.26" style="fill:#fae100"/></svg>